<svg width="502" height="185" viewBox="0 0 502 185" fill="none" xmlns="http://www.w3.org/2000/svg">
<rect width="502" height="185" fill="white"/>
<path d="M144.528 133.652C143.081 133.652 141.815 133.568 140.729 133.399C139.619 133.255 138.679 133.074 137.907 132.857V123.535C138.679 123.704 139.511 123.86 140.404 124.005C141.272 124.174 142.201 124.258 143.19 124.258C144.492 124.258 145.662 124.005 146.699 123.499C147.737 123.017 148.557 122.09 149.16 120.717C149.763 119.344 150.065 117.369 150.065 114.791V65.289H161.281V114.719C161.281 119.247 160.57 122.897 159.147 125.667C157.748 128.461 155.782 130.485 153.249 131.737C150.74 133.014 147.833 133.652 144.528 133.652ZM209.009 97.8448C209.009 101.217 208.551 104.204 207.634 106.806C206.741 109.407 205.427 111.611 203.69 113.418C201.977 115.2 199.902 116.549 197.467 117.465C195.054 118.38 192.328 118.838 189.288 118.838C186.443 118.838 183.825 118.38 181.438 117.465C179.074 116.549 177.01 115.2 175.25 113.418C173.513 111.611 172.162 109.407 171.197 106.806C170.257 104.204 169.786 101.217 169.786 97.8448C169.786 93.3642 170.582 89.5703 172.175 86.4629C173.767 83.3554 176.034 80.9948 178.977 79.3808C181.919 77.7669 185.429 76.96 189.507 76.96C193.293 76.96 196.646 77.7669 199.565 79.3808C202.508 80.9948 204.812 83.3554 206.476 86.4629C208.165 89.5703 209.009 93.3642 209.009 97.8448ZM181.039 97.8448C181.039 100.494 181.328 102.723 181.908 104.529C182.487 106.336 183.392 107.697 184.621 108.612C185.851 109.528 187.456 109.985 189.434 109.985C191.388 109.985 192.968 109.528 194.174 108.612C195.404 107.697 196.297 106.336 196.851 104.529C197.43 102.723 197.719 100.494 197.719 97.8448C197.719 95.1709 197.43 92.9548 196.851 91.1963C196.297 89.4137 195.404 88.0768 194.174 87.1855C192.944 86.2942 191.339 85.8487 189.361 85.8487C186.443 85.8487 184.319 86.8482 182.993 88.8476C181.69 90.8469 181.039 93.8461 181.039 97.8448ZM227.681 61.8926V74.9726C227.681 76.4902 227.633 77.9957 227.536 79.4892C227.463 80.9827 227.368 82.139 227.247 82.958H227.681C228.743 81.2959 230.19 79.8867 232.024 78.7304C233.856 77.5501 236.232 76.96 239.152 76.96C243.687 76.96 247.365 78.7304 250.188 82.2715C253.009 85.8125 254.42 91.0036 254.42 97.8448C254.42 102.446 253.769 106.312 252.466 109.443C251.164 112.551 249.343 114.899 247.003 116.489C244.663 118.055 241.949 118.838 238.861 118.838C235.894 118.838 233.556 118.308 231.843 117.248C230.13 116.188 228.743 114.996 227.681 113.671H226.922L225.076 118.115H216.646V61.8926H227.681ZM235.605 85.7764C233.675 85.7764 232.143 86.1738 231.01 86.9688C229.876 87.7637 229.044 88.9561 228.514 90.5459C228.006 92.1357 227.73 94.1472 227.681 96.5801V97.7725C227.681 101.699 228.26 104.71 229.419 106.806C230.576 108.877 232.686 109.913 235.75 109.913C238.018 109.913 239.815 108.865 241.141 106.769C242.492 104.674 243.168 101.651 243.168 97.7002C243.168 93.7497 242.492 90.7748 241.141 88.7754C239.79 86.7761 237.945 85.7764 235.605 85.7764ZM290.281 106.119C290.281 108.865 289.63 111.19 288.326 113.093C287.047 114.972 285.131 116.405 282.573 117.393C280.016 118.356 276.832 118.838 273.02 118.838C270.199 118.838 267.775 118.657 265.748 118.296C263.746 117.934 261.719 117.332 259.669 116.489V107.384C261.863 108.371 264.216 109.19 266.724 109.841C269.258 110.467 271.477 110.78 273.382 110.78C275.53 110.78 277.062 110.467 277.978 109.841C278.919 109.19 279.389 108.347 279.389 107.312C279.389 106.637 279.197 106.035 278.81 105.505C278.448 104.951 277.652 104.337 276.422 103.662C275.192 102.964 273.263 102.06 270.632 100.952C268.1 99.8923 266.013 98.8203 264.373 97.7363C262.757 96.6524 261.55 95.3756 260.755 93.9063C259.982 92.4127 259.596 90.5218 259.596 88.2334C259.596 84.4997 261.044 81.6933 263.938 79.8144C266.857 77.9114 270.753 76.96 275.625 76.96C278.135 76.96 280.523 77.2129 282.791 77.7188C285.082 78.2247 287.434 79.0315 289.846 80.1397L286.517 88.0889C284.515 87.2216 282.621 86.5111 280.837 85.957C279.075 85.403 277.278 85.126 275.444 85.126C273.828 85.126 272.611 85.3427 271.79 85.7764C270.97 86.21 270.561 86.8724 270.561 87.7637C270.561 88.414 270.766 88.9922 271.175 89.498C271.609 90.0039 272.43 90.57 273.636 91.1963C274.866 91.7985 276.663 92.5814 279.027 93.5449C281.319 94.4843 283.309 95.4719 284.998 96.5078C286.685 97.5195 287.989 98.7841 288.906 100.302C289.822 101.795 290.281 103.734 290.281 106.119ZM344.918 76.96C349.503 76.96 352.964 78.1403 355.304 80.501C357.667 82.8376 358.85 86.5953 358.85 91.7743V118.115H347.777V94.5205C347.777 91.6299 347.282 89.4499 346.293 87.9804C345.304 86.5111 343.772 85.7764 341.699 85.7764C338.78 85.7764 336.706 86.8242 335.474 88.9199C334.244 90.9915 333.63 93.9665 333.63 97.8448V118.115H322.593V94.5205C322.593 92.5935 322.376 90.9794 321.942 89.6787C321.509 88.3779 320.844 87.4024 319.952 86.7519C319.06 86.1015 317.914 85.7764 316.515 85.7764C314.464 85.7764 312.848 86.2942 311.666 87.3301C310.508 88.3417 309.676 89.8474 309.17 91.8466C308.687 93.8219 308.446 96.2428 308.446 99.1093V118.115H297.41V77.7188H305.841L307.325 82.8857H307.939C308.76 81.4886 309.784 80.3564 311.014 79.4892C312.27 78.622 313.644 77.9837 315.14 77.5742C316.635 77.1648 318.155 76.96 319.699 76.96C322.666 76.96 325.175 77.4417 327.225 78.4053C329.299 79.3688 330.891 80.8623 332.001 82.8857H332.979C334.185 80.8141 335.885 79.3086 338.081 78.3691C340.3 77.4297 342.58 76.96 344.918 76.96ZM385.301 76.8877C390.729 76.8877 394.89 78.068 397.784 80.4287C400.679 82.7893 402.127 86.3786 402.127 91.1963V118.115H394.42L392.285 112.623H391.996C390.837 114.068 389.656 115.249 388.449 116.164C387.243 117.079 385.856 117.754 384.287 118.188C382.72 118.621 380.814 118.838 378.571 118.838C376.183 118.838 374.035 118.38 372.13 117.465C370.249 116.549 368.766 115.152 367.68 113.273C366.594 111.37 366.052 108.962 366.052 106.047C366.052 101.759 367.56 98.6035 370.574 96.5801C373.589 94.5326 378.113 93.4004 384.143 93.1836L391.163 92.9667V91.1963C391.163 89.0765 390.608 87.5228 389.499 86.5351C388.389 85.5475 386.845 85.0537 384.867 85.0537C382.914 85.0537 380.995 85.3307 379.114 85.8848C377.232 86.4388 375.351 87.1374 373.47 87.9804L369.814 80.5372C371.962 79.405 374.362 78.5137 377.015 77.8632C379.693 77.2129 382.455 76.8877 385.301 76.8877ZM391.163 99.3985L386.894 99.5429C383.323 99.6393 380.839 100.278 379.439 101.458C378.064 102.638 377.377 104.192 377.377 106.119C377.377 107.805 377.872 109.01 378.861 109.732C379.85 110.431 381.139 110.78 382.733 110.78C385.097 110.78 387.086 110.082 388.702 108.684C390.343 107.287 391.163 105.3 391.163 102.723V99.3985ZM429.085 110.058C430.29 110.058 431.46 109.937 432.595 109.696C433.752 109.455 434.898 109.154 436.032 108.793V116.995C434.851 117.525 433.378 117.959 431.617 118.296C429.881 118.657 427.975 118.838 425.901 118.838C423.488 118.838 421.318 118.452 419.387 117.682C417.482 116.887 415.974 115.526 414.865 113.599C413.779 111.647 413.236 108.938 413.236 105.469V85.9931H407.954V81.332L414.033 77.6465L417.217 69.1191H424.272V77.7188H435.597V85.9931H424.272V105.469C424.272 107.01 424.707 108.167 425.575 108.938C426.467 109.684 427.637 110.058 429.085 110.058ZM479.527 97.8448C479.527 101.217 479.068 104.204 478.152 106.806C477.258 109.407 475.944 111.611 474.207 113.418C472.494 115.2 470.42 116.549 467.984 117.465C465.571 118.38 462.846 118.838 459.807 118.838C456.959 118.838 454.343 118.38 451.954 117.465C449.59 116.549 447.528 115.2 445.767 113.418C444.029 111.611 442.68 109.407 441.714 106.806C440.773 104.204 440.303 101.217 440.303 97.8448C440.303 93.3642 441.1 89.5703 442.691 86.4629C444.283 83.3554 446.55 80.9948 449.493 79.3808C452.437 77.7669 455.946 76.96 460.023 76.96C463.811 76.96 467.163 77.7669 470.083 79.3808C473.026 80.9948 475.328 83.3554 476.993 86.4629C478.682 89.5703 479.527 93.3642 479.527 97.8448ZM451.557 97.8448C451.557 100.494 451.846 102.723 452.425 104.529C453.003 106.336 453.908 107.697 455.138 108.612C456.369 109.528 457.972 109.985 459.95 109.985C461.904 109.985 463.485 109.528 464.69 108.612C465.922 107.697 466.814 106.336 467.368 104.529C467.948 102.723 468.237 100.494 468.237 97.8448C468.237 95.1709 467.948 92.9548 467.368 91.1963C466.814 89.4137 465.922 88.0768 464.69 87.1855C463.46 86.2942 461.857 85.8487 459.879 85.8487C456.959 85.8487 454.837 86.8482 453.511 88.8476C452.208 90.8469 451.557 93.8461 451.557 97.8448Z" fill="#3456F5"/>
<path d="M88.0768 86.9754C88.0768 86.4053 88.3083 85.8597 88.7183 85.4631L101.404 73.1912C102.741 71.8972 104.98 72.8437 104.98 74.7037V118.074C104.98 119.966 102.676 120.898 101.357 119.54L88.6717 106.476C88.2902 106.083 88.0768 105.558 88.0768 105.01V86.9754Z" fill="#3456F5"/>
<path d="M58.0069 80.6517C58.0069 80.099 57.7891 79.5683 57.4008 79.1744L44.7153 66.3088C43.3917 64.9664 41.1042 65.9024 41.1042 67.7861V111.129C41.1042 112.996 43.3567 113.94 44.6904 112.632L57.3759 100.188C57.7794 99.7923 58.0069 99.2509 58.0069 98.686V80.6517Z" fill="#3456F5"/>
<path d="M101.43 40.6175C102.759 39.2924 105.029 40.2322 105.029 42.1074V62.5602C105.029 63.1186 104.807 63.6541 104.411 64.049L83.7969 84.6347C83.4014 85.0296 83.1793 85.5651 83.1793 86.1236V104.2C83.1793 104.758 82.957 105.294 82.5612 105.689L44.7596 143.414C43.431 144.74 41.1605 143.8 41.1605 141.925V122.489C41.1605 121.93 41.3826 121.395 41.7781 121L61.8325 100.974C62.2278 100.579 62.45 100.043 62.45 99.4847V80.3632C62.45 79.8042 62.6726 79.2681 63.0686 78.8732L101.43 40.6175Z" fill="#3456F5"/>
</svg>
